<svg fill="none" height="24" viewBox="0 0 24 24" width="24" xmlns="http://www.w3.org/2000/svg">
<path d="M12 0C5.3826 0 0 5.38259 0 12C0 18.6174 5.3826 24 12 24C18.6174 24 24 18.6174 24 12C24 5.38259 18.6174 0 12 0ZM18.7324 19.0706C18.7159 19.087 18.5649 19.225 18.0197 19.1954C17.4746 19.1658 16.7159 18.9688 15.7767 18.5419C13.908 17.6979 11.6223 16.0887 9.41544 13.8851C9.21183 13.6814 9.02135 13.4811 8.82759 13.2775L8.77504 13.2151H16.4893L16.5353 13.2775C17.5895 14.7685 18.2989 16.1445 18.6338 17.2479C19.0542 18.6207 18.7652 19.0345 18.7291 19.0706H18.7324ZM4.73892 19.3695C4.70279 19.3333 4.41379 18.9195 4.83416 17.5468C5.17241 16.4433 5.87849 15.0673 6.93268 13.5764H7.0312C7.44499 14.0427 7.87521 14.509 8.33498 14.9688C9.10345 15.7373 9.88834 16.4401 10.6667 17.0739C9.61248 17.8325 8.60099 18.4302 7.6913 18.844C6.75206 19.2677 5.99343 19.4647 5.44828 19.4975C4.90312 19.5271 4.75206 19.3892 4.73563 19.3727L4.73892 19.3695ZM4.73892 5.37931C4.75534 5.36289 4.90641 5.22496 5.45156 5.25452C5.99672 5.28407 6.75534 5.48112 7.69458 5.90805C8.52874 6.28571 9.44828 6.82102 10.4039 7.48768C9.9179 7.91461 9.43186 8.36782 8.95238 8.84729C8.20361 9.59606 7.51724 10.358 6.89655 11.1199C5.86207 9.6486 5.16585 8.29228 4.83416 7.20197C4.41379 5.82923 4.70279 5.41543 4.73892 5.37931ZM16.2824 11.6864H8.41051C8.90969 11.0985 9.44828 10.5123 10.0296 9.92775C12.2332 7.72414 14.5222 6.11494 16.3908 5.27094C17.33 4.84729 18.0887 4.65025 18.6338 4.61741C19.179 4.58785 19.3301 4.72578 19.3465 4.7422C19.3629 4.75862 19.4647 4.867 19.4745 5.25452C19.4844 5.65189 19.3859 6.22332 19.1166 6.96552C18.6305 8.30542 17.665 9.95895 16.2824 11.6864ZM17.688 3.21839C15.9934 3.58949 13.8292 4.73563 11.6158 6.47619C9.33334 4.82759 7.16585 3.84236 5.57964 3.73727C7.35304 2.35796 9.57964 1.53038 11.9967 1.53038C14.0952 1.53038 16.046 2.15107 17.688 3.21839ZM3.11659 6.46305C3.30049 8.05255 4.29885 10.1642 5.9179 12.3777C4.49261 14.3251 3.5468 16.197 3.21511 17.7012C2.14778 16.0591 1.52381 14.1051 1.52381 12.0066C1.52381 9.90805 2.10838 8.07225 3.11659 6.46305ZM6.44664 20.8801C7.99672 20.5287 9.93104 19.5369 11.9343 18.0427C14.1478 19.6289 16.2496 20.5846 17.8095 20.7126C16.1445 21.8259 14.1445 22.4795 11.9967 22.4795C9.95731 22.4795 8.05583 21.8916 6.44664 20.8801ZM20.3777 18.2824C20.2923 16.7225 19.3399 14.5813 17.7274 12.3218C19.3925 10.1741 20.4926 8.08539 20.8604 6.4335C21.8785 8.04926 22.4729 9.95731 22.4729 12.0033C22.4729 14.3547 21.6946 16.5287 20.3777 18.2791V18.2824Z" fill="white" style="fill:white;fill-opacity:1;"></path>
</svg>